<?xml version="1.0" standalone="no"?><!DOCTYPE svg PUBLIC "-//W3C//DTD SVG 1.1//EN" "http://www.w3.org/Graphics/SVG/1.1/DTD/svg11.dtd"><svg t="1696756980021" class="icon" viewBox="0 0 1024 1024" version="1.1" xmlns="http://www.w3.org/2000/svg" p-id="4100" width="48" height="48" xmlns:xlink="http://www.w3.org/1999/xlink"><path d="M1024 512c0 282.767-229.242 512-512 512C229.233 1024 0 794.767 0 512S229.233 0 512 0c282.758 0 512 229.233 512 512z" fill="#EEF5FF" p-id="4101"></path><path d="M297.015 399.352c-2.414-3.199-17.572-17.126-19.452-15.581-3.974 3.257-2.095 18.35 1.466 24.463 3.285 5.607 17.831 20.964 18.459 19.146 1.199-3.467 2.527-24.146-0.473-28.028" p-id="4102"></path><path d="M825.675 432.315l-15.81 9.864 26.352 15.297a23.22 23.22 0 0 0-5.418-2.264c11.693 3.285 19.287 14.914 19.343 32.923 0.014 4.648-0.48 9.454-1.415 14.309l14.677 8.395c5.147-16.469 7.845-55.501-0.829-60.571l-36.9-17.953zM430.409 661.293l26.317 15.292c-0.037-0.022-0.078-0.039-0.117-0.061 8.654 4.956 14.027 15.578 14.069 30.708 0.018 7.056-1.135 14.471-3.224 21.887l9.36 5.736c5.686-14.453 4.38-66.004-4.542-71.172l-29.731-16.443-12.132 14.053z" fill="#191919" p-id="4103"></path><path d="M736.401 492.229c4.656-10.503 11.036-20.577 18.521-29.104 6.313-7.174 13.407-13.28 20.893-17.611 13.305-7.674 25.357-8.382 34.051-3.334l26.352 15.297c-8.717-5.045-20.766-4.311-34.076 3.346-7.484 4.33-14.6 10.434-20.902 17.6-7.479 8.54-13.856 18.583-18.504 29.134-5.251 11.849-8.32 24.333-8.277 35.836 0.025 15.065 5.361 25.69 13.969 30.685l-26.334-15.316c-8.57-4.967-13.898-15.589-13.961-30.664-0.011-11.512 3.035-23.961 8.268-35.869" fill="#232221" p-id="4104"></path><path d="M802.184 476.344c18.961-10.961 34.359-2.155 34.439 19.611 0.051 21.764-15.258 48.307-34.218 59.27-18.943 10.936-34.376 2.137-34.429-19.635-0.078-21.738 15.237-48.284 34.208-59.246" fill="#232221" opacity=".5" p-id="4105"></path><path d="M817.764 474.224l-1.342-0.095-8.693 0.999s-1.882 0.259-0.599 0.615c6.271 1.688 10.409 7.775 10.634 17.374 0.338 16.245-10.803 36.357-24.922 44.889-8.559 5.156-16.242 4.87-21.02 0.196-1.009-0.938 0.562 2.234 0.562 2.234l2.837 5.087c5.096 8.985 15.76 10.951 27.893 3.632 16.728-10.109 29.932-33.886 29.516-53.138-0.294-13.723-4.76-22.114-14.866-21.793" fill="#BABABA" p-id="4106"></path><path d="M794.345 478.811c-15.142 9.349-26.921 31.176-26.351 48.748 0.586 17.544 13.34 24.189 28.48 14.835 15.123-9.351 26.9-31.192 26.309-48.741-0.573-17.558-13.315-24.233-28.438-14.842" fill="#9D9D9D" p-id="4107"></path><path d="M818.067 497.056c0-0.145-0.009-0.308-0.009-0.482-0.432-12.926-8.84-18.704-19.496-14.348a24.299 24.299 0 0 0-4.02 2.061c-7.123 4.422-13.365 12.152-17.314 20.694-3.01 6.465-4.682 13.376-4.467 19.647 0.475 14.513 11.011 20.006 23.523 12.254l2.448-1.484c-11.122 6.881-20.504 2-20.91-10.944-0.206-5.554 1.304-11.7 3.957-17.438 3.502-7.605 9.071-14.491 15.417-18.425 1.198-0.768 2.423-1.353 3.588-1.831 9.467-3.861 16.951 1.271 17.332 12.775 0.001 0.414-0.049-2.479-0.049-2.479" fill="#BABABA" p-id="4108"></path><path d="M834.491 494.896c0.449 20.45-13.563 45.702-31.327 56.413-17.743 10.675-32.471 2.784-32.937-17.659-0.423-20.492 13.579-45.743 31.314-56.436 17.75-10.693 32.492-2.793 32.95 17.682m-32.887-15.524c-16.72 10.047-29.911 33.837-29.496 53.132 0.414 19.244 14.296 26.723 31.006 16.65 16.728-10.109 29.932-33.886 29.516-53.138-0.423-19.267-14.314-26.719-31.026-16.644" fill="#DDDDDD" p-id="4109"></path><path d="M802.141 460.822c-26.43 15.273-47.779 52.246-47.684 82.57 0.102 30.365 21.582 42.594 48.011 27.338 26.425-15.237 47.761-52.244 47.674-82.595-0.095-30.332-21.576-42.569-48.001-27.313z m1.023 90.488c-17.743 10.675-32.471 2.784-32.937-17.659-0.423-20.492 13.579-45.743 31.314-56.436 17.749-10.694 32.491-2.793 32.949 17.682 0.45 20.45-13.562 45.702-31.326 56.413z" fill="#353433" p-id="4110"></path><path d="M797.197 488.59c-11.146 6.88-19.83 22.958-19.374 35.864 0.406 12.944 9.788 17.825 20.91 10.944 11.132-6.879 19.814-22.966 19.384-35.863-0.438-12.91-9.797-17.809-20.92-10.945" fill="#DDDDDD" p-id="4111"></path><path d="M356.947 711.357c4.666-10.549 11.036-20.603 18.53-29.125 6.313-7.184 13.382-13.252 20.891-17.598 13.306-7.695 25.333-8.392 34.042-3.342l26.317 15.292c-8.674-5.063-20.755-4.347-34.048 3.337-7.502 4.365-14.599 10.437-20.903 17.609-7.484 8.521-13.857 18.577-18.505 29.122-5.243 11.858-8.302 24.339-8.294 35.841 0.06 15.075 5.389 25.691 13.986 30.676l-26.308-15.3c-8.588-4.985-13.934-15.592-13.968-30.675-0.044-11.503 3.016-23.962 8.26-35.837" fill="#232221" p-id="4112"></path><path d="M422.737 695.473c18.943-10.972 34.378-2.185 34.438 19.573 0.061 21.792-15.254 48.329-34.207 59.28-18.976 10.927-34.387 2.164-34.455-19.637-0.069-21.757 15.254-48.293 34.224-59.216" fill="#232221" opacity=".5" p-id="4113"></path><path d="M438.283 693.322l-1.343-0.104-8.666 1.003s-1.89 0.257-0.59 0.627c6.244 1.655 10.394 7.797 10.599 17.36 0.363 16.265-10.794 36.376-24.903 44.887-8.553 5.147-16.245 4.873-21.046 0.216-0.949-0.933 0.604 2.242 0.604 2.242l2.836 5.052c5.07 9.013 15.719 10.988 27.901 3.633 16.71-10.064 29.922-33.856 29.491-53.115-0.293-13.727-4.759-22.118-14.883-21.801" fill="#BABABA" p-id="4114"></path><path d="M414.899 697.904c-15.133 9.354-26.92 31.207-26.35 48.748 0.575 17.549 13.354 24.232 28.45 14.833 15.138-9.34 26.931-31.183 26.337-48.742-0.561-17.54-13.324-24.206-28.437-14.839" fill="#9D9D9D" p-id="4115"></path><path d="M417.717 707.69c-11.14 6.907-19.815 22.966-19.375 35.875 0.423 12.937 9.805 17.833 20.936 10.943 11.131-6.882 19.79-22.949 19.368-35.875-0.422-12.907-9.788-17.824-20.929-10.943" fill="#DDDDDD" p-id="4116"></path><path d="M438.621 716.159v-0.473c-0.433-12.938-8.848-18.706-19.514-14.369-1.313 0.536-2.674 1.251-4.043 2.097-7.13 4.406-13.348 12.133-17.29 20.687-3.01 6.442-4.7 13.366-4.474 19.62 0.474 14.521 11.018 20.042 23.521 12.289l2.457-1.501c-11.131 6.89-20.513 1.993-20.936-10.943-0.197-5.57 1.321-11.693 3.975-17.455 3.518-7.579 9.063-14.479 15.4-18.42a22.36 22.36 0 0 1 3.587-1.819c9.493-3.881 16.962 1.268 17.341 12.763 0.018 0.404-0.024-2.476-0.024-2.476" fill="#BABABA" p-id="4117"></path><path d="M422.678 679.922c-26.431 15.281-47.788 52.252-47.702 82.572 0.129 30.348 21.608 42.602 48.019 27.338 26.419-15.238 47.761-52.242 47.684-82.6-0.086-30.328-21.584-42.556-48.001-27.31z m1.04 90.472c-17.725 10.702-32.497 2.812-32.919-17.661-0.476-20.465 13.565-45.723 31.281-56.425 17.739-10.692 32.517-2.776 32.955 17.671 0.45 20.48-13.579 45.73-31.317 56.415z" fill="#353433" p-id="4118"></path><path d="M455.035 713.979c0.45 20.48-13.579 45.73-31.317 56.415-17.725 10.702-32.497 2.812-32.919-17.661-0.476-20.465 13.565-45.723 31.281-56.425 17.739-10.693 32.517-2.777 32.955 17.671m-32.904-15.5c-16.692 10.068-29.91 33.858-29.488 53.107 0.432 19.299 14.306 26.741 31.033 16.652 16.71-10.064 29.922-33.856 29.491-53.115-0.439-19.254-14.305-26.731-31.036-16.644" fill="#DDDDDD" p-id="4119"></path><path d="M916.156 387.528c-1.844-2.5-20.926-14.926-20.926-14.926s1.463-52.451-18.135-66.799c-62.885-46.032-154.163-90.919-171.667-89.282-44.21 4.096-70.584 20.921-74.456 20.437-4.295-0.507-76.612-0.93-107.271 16.775L389.816 330.94c-25.653 14.878-105.222 95.059-106.859 97.068l-116.346 90.224c-7.038 5.335-13.52 11.639-19.444 18.349-14.081 16.047-25.248 34.435-31.188 49.053-1.784 4.389-4.062 13.547-5.105 25.566-0.009 0.447-1.758 1.51-3.225 3.252-0.938 1.086-1.421 2.494-1.518 3.949-0.353 5.494-0.086 55.535-0.018 68.515 0.018 2.786 0.286 5.554 1.207 8.169 9.167 25.67 47.985 57.994 100.564 83.813 50.497 24.774 109.561 39.073 157.424 19.404 0.508-68.602 31.023-111.782 57.747-128.242 0.576-0.354 1.154-0.698 1.706-1.027 27.462-15.85 50.279-3.656 51.762 27.853l0.034-0.02v38.06l273.819-158.372c-2.079-6.854-3.105-36.256-3.105-36.256 1.511-31.728 22.772-68.908 49.546-85.45 0.579-0.346 1.121-0.673 1.7-1.002 50.777-29.56 62.839 26.062 64.832 56.682 0 0 38.052-24.162 50.433-48.876 3.123-6.315 6.452-68.586 2.374-74.124zM472.627 533.483a12.595 12.595 0 0 1-1.156 1.937c-21.76 3.959-177.407-73.954-172.85-116.035 2.602-2.553 5.152-5.097 7.642-7.589 21.375-21.126 39.74-38.177 52.821-49.808 6.596-5.772 11.787-10.305 15.296-13.384 1.787-1.52 3.175-2.701 4.252-3.554 0 0 0.53 0.527 1.551 1.486 0.281-0.247 0.577-0.506 0.854-0.743 3.681 3.412 11.631 10.546 23.789 19.652l-1.072 0.615c13.749 10.346 32.977 23.445 57.121 36.33 13.287 7.131 27.981 14.305 43.958 20.892a217.064 217.064 0 0 0 12.169 4.902l0.211 0.081 10.919 3.832-18.083 33.167 0.022-0.762c-7.592 13.964-15.371 28.269-23.261 42.801-4.679 8.657-9.423 17.411-14.183 26.18z m25.667 6.622c2.987-11.625 34.087-79.098 48.589-104.778 3.241-5.778 7.95-10.514 13.72-13.832 20.849-12.075 69.066-39.965 104.748-60.365a78.996 78.996 0 0 1 39.377-10.53 78.575 78.575 0 0 1 33.853 7.664c14.814 7.131 28.456 16.135 33.94 24.481l-274.227 157.36z" fill="#1F95FF" p-id="4120"></path><path d="M418.029 673.723c-25.403 18.566-52.228 60.228-52.719 124.578-47.863 19.669-106.928 5.37-157.424-19.404-52.579-25.818-91.397-58.143-100.564-83.813-0.921-2.615-1.189-5.383-1.207-8.169-0.042-8.036-0.145-66.687-0.145-66.687s17.944 33.446 65.825 65.301c32.582 21.674 75.879 43.461 116.232 50.36 15.647 2.675 47.518 5.892 64.497-1.726 26.813-12.028 39.278-40.517 65.505-60.44" opacity=".2" p-id="4121"></path><path d="M440.604 663.08c19.874-3.915 34.732 8.668 35.921 33.804l0.034 38.04 273.819-158.372-3.105-36.256c1.511-31.728 22.772-68.908 49.546-85.45 0.579-0.346 1.121-0.673 1.7-1.002 50.777-29.56 62.839 26.062 64.832 56.682 0 0 38.052-24.162 50.433-48.876 3.122-6.313 6.451-68.583 2.373-74.121-1.844-2.5-20.926-14.926-20.926-14.926s0.473-11.591-2.734-31.106C767.633 505.682 459.514 653.527 440.604 663.08" fill="#0066DB" p-id="4122"></path><path d="M294.699 421.955c29.524-29.649 55.616-54.371 83.141-77.766a1.165 1.165 0 0 1 1.569 0.034c0.38 0.388 0.957 0.913 1.629 1.57-23.677 20.446-70.575 66.135-80.552 79.524l104.341-59.873c24.443 18.335 65.766 44.721 123.205 65.515 0.769 0.265 1.142 1.172 0.743 1.86l-55.554 101.904c-3.474 6.4-10.915 8.626-17.941 6.719-25.335-6.82-87.356-28.376-147.372-81.7-9.242-8.218-22.908-28.042-13.209-37.787" fill="#101616" p-id="4123"></path><path d="M782.092 399.974l-7.76-15.506-2.449 1.208 7.587 15.219c6.019 11.979 11.21 26.267 11.21 39.677 0 0-31.628 36.566-38.579 50.433-5.306 10.585-15.337 45.136-15.337 45.136l-79.186 46.146-0.065-72.031c-0.045-13.386-3.147-26.589-9.147-38.579l-7.763-15.504-2.448 1.208 7.588 15.222a86.045 86.045 0 0 1 9.141 38.624v72.379l-143.182 82.492c-1.754-13.212-11.518-86.504-13.07-95.472-1.638-9.494 3.711-29.304 3.721-29.501l-2.624-0.706c-0.225 0.827-5.537 20.576-3.792 30.665 1.682 9.779 13.228 96.496 13.336 97.404l0.27 2.011 1.755-1.022 228.166-131.756s9.607-34.527 14.744-45.146c7.017-14.501 38.544-50.966 38.544-50.966-0.046-13.383-4.661-29.647-10.66-41.635z" fill="#1F72FF" p-id="4124"></path><path d="M418.932 460.046c-9.19 4.76-38.255 20.084-47.457 25.405-3.585 2.068-6.959 3.89-10.054 5.664-2.431 1.41-4.699 2.786-6.744 4.245 29.343 19.023 56.66 31.15 76.965 38.539 0.581-0.33 1.122-0.637 1.71-0.973 3.085-1.796 6.449-3.621 10.027-5.694 9.208-5.312 38.293-20.638 47.485-25.416a1.49 1.49 0 0 1 0.414-0.169l0.43-0.818-70.405-40.92a1.787 1.787 0 0 0-0.955-0.251c-0.438 0-0.931 0.111-1.416 0.388" fill="#434343" p-id="4125"></path><path d="M405.993 437.763c-2.372 12.002-2.433 21.825-2.372 27.535 0 0.578 0.196 1 0.517 1.173l71.928 41.809c-0.335-0.201-0.542-0.598-0.542-1.155-0.042-5.781-0.017-15.577 2.372-27.588 9.503-48.396 6.96-58.246 7.224-66.324-30.367-14.247-54.425-29.236-71.902-41.661-0.251 8.077 2.187 18.125-7.225 66.211" fill="#383838" p-id="4126"></path><path d="M495.382 476.172c1.472-16.177 4.385-37.576 5.496-55.924a508.785 508.785 0 0 1-15.745-7.05c-0.271 8.1 2.251 17.958-7.238 66.338-2.388 12.011-2.413 21.808-2.372 27.588 0 1.1 0.786 1.597 1.757 1.005l14.736-7.876 1.927-3.542c-0.214-5.973 0.774-13.352 1.439-20.539z" fill="#2F2F2F" p-id="4127"></path><path d="M458.571 535.745c-2.743 1.587-5.37 3.045-7.828 4.438 1.596 0.457 3.111 0.889 4.537 1.26 7.027 1.907 14.467-0.318 17.941-6.719l5.442-9.943c-8.269 4.424-16.065 8.66-20.092 10.964" fill="#434343" p-id="4128"></path><path d="M493.069 489.513a125.74 125.74 0 0 0-1.894 13.772l37.6-68.998c0.398-0.691 0.025-1.595-0.743-1.864a506.158 506.158 0 0 1-27.604-10.898c-0.786 8.571 2.827 16.272-7.359 67.988" fill="#383838" p-id="4129"></path><path d="M843.623 441.419c27.852-24.275 47.01-42.86 51.555-49.415l0.053-19.551s20.536 14.326 20.926 15.075c-26.989 24.502-72.534 53.891-72.534 53.891" fill="#FFFFFF" opacity=".2" p-id="4130"></path><path d="M324.223 755.415c-7.657-0.053-21.875-0.13-40.008-4.115-1.604-0.335-3.19 0.872-3.19 2.528v25.689c0 1.225 0.803 2.25 1.975 2.543 9.071 2.38 30.849 4.279 41.283 3.934a2.594 2.594 0 0 0 2.519-2.596v-25.347a2.608 2.608 0 0 0-2.579-2.636zM112.565 648.963c0.044-0.887-0.25-1.766-0.749-2.543-1.873-2.933-4.261-7.148-5.848-12.177 0.06 4.113 0.215 28.502 0.646 32.667 1.304 4.957 4.363 10.417 5.951 12.148 0.095-1.12-0.105-26.015 0-30.095zM241.757 737.943c-40.05-16.412-82.571-40.488-110.74-69.764-1.166-1.184-3.123-0.408-3.123 1.248v28.33c0 1.326 0.293 2.638 1.087 3.733 14.356 20.541 94.589 65.97 111.825 69.636 1.139 0.215 2.157-0.698 2.157-1.854l-0.051-29.665a1.89 1.89 0 0 0-1.155-1.664z" fill="#2B2B2B" p-id="4131"></path><path d="M282.982 775.68c9.088 2.355 30.866 4.27 41.3 3.925a2.593 2.593 0 0 0 2.519-2.613v6.407a2.593 2.593 0 0 1-2.519 2.596c-10.434 0.346-32.212-1.554-41.3-3.934-1.155-0.293-1.958-1.318-1.958-2.543v-6.381c0.001 1.215 0.804 2.224 1.958 2.543M106.614 666.91c1.304 4.957 4.363 10.417 5.951 12.148 0.044-0.379 0.044-3.438 0-7.414v1.032c-1.587-1.73-4.786-7.327-6.08-12.271-0.051 0.458-0.188 3.41 0.129 6.505m22.368 28.174c-0.794-1.07-1.087-2.396-1.087-3.702v6.376c0 1.326 0.293 2.638 1.087 3.733 14.356 20.541 94.589 65.97 111.825 69.636 1.139 0.215 2.157-0.698 2.157-1.854l-0.026-6.355c0 1.14-1.035 2.044-2.131 1.794-17.236-3.615-97.469-49.087-111.825-69.628" fill="#808080" p-id="4132"></path><path d="M627.367 519.737l7.184-3.792c2.422-1.302 4.439-4.196 4.439-6.452v-8.308c0-2.249-2.018-3.024-4.439-1.745l-7.184 3.81c-2.457 1.318-4.447 4.181-4.447 6.444V518c0 2.259 1.99 3.042 4.447 1.737" opacity=".2" p-id="4133"></path><path d="M128.112 562.245c-7.183 16.608 8.761 35.511 22.332 46.704 3.95 3.27 0.568 19.104-2.234 23.638-4.948 8.045-25.693-16.161-30.885-30.917-4.778-13.649 9.589-39.572 10.787-39.425M248.069 667.082c45.079 17.048 88.183 12.373 97.935 10.953 1.251-0.166 2.631 0.439 3.001 1.664 2.673 8.027-5.147 25.102-10.054 29.424-6.511 5.699-65.833 2.183-97.471-14.841-2.913-1.562-4.251-4.944-3.846-8.195 0.89-7.407 3.649-21.567 10.435-19.005" fill="#C9E2FF" p-id="4134"></path><path d="M280.884 440.142s-10.182 6.209-24.539 16.919c-7.078 5.434-15.399 11.738-23.797 19.154-8.492 7.277-17.151 15.523-25.643 23.912-4.072 4.415-8.233 8.686-12.083 13.099-3.766 4.545-7.714 8.761-11.096 13.255-3.363 4.494-6.853 8.622-9.622 12.952-2.81 4.305-5.648 8.236-7.932 12.092-2.2 3.917-4.218 7.485-6.028 10.668-1.785 3.174-2.89 6.139-4.044 8.486-2.171 4.734-3.406 7.416-3.406 7.416l3.82-7.22c1.277-2.259 2.562-5.138 4.537-8.218 1.888-3.062 4.085-6.521 6.439-10.262 2.398-3.761 5.348-7.605 8.287-11.782 2.863-4.187 6.484-8.188 9.858-12.606 3.388-4.434 7.345-8.604 11.146-13.052 3.891-4.32 8.073-8.531 12.134-12.871 8.338-8.433 16.838-16.711 25.211-24.068 8.296-7.44 16.263-14.125 23.186-19.757 6.96-5.536 12.788-10.201 16.952-13.288 4.165-3.138 6.62-4.829 6.62-4.829" opacity=".2" p-id="4135"></path><path d="M106.063 620.315c0.025-0.673 0.025-1.345 0.069-1.915 0.096-1.455 0.579-2.863 1.518-3.949 1.467-1.742 3.216-2.805 3.225-3.252 0.016-0.221 0.052-0.422 0.061-0.673 84.977 124.069 244.148 122.396 244.148 122.733 0 0.061-7.882 4.77-28.04 5.469-95.815 3.251-205.375-78.616-220.981-118.413" fill="#FFFFFF" opacity=".2" p-id="4136"></path><path d="M874.647 337.564c5.907-5.596 8.313-8.59 12.449-12.54 7.192-3.285 12.798 44.327 7.96 47.43-5.959 3.994-11.742 7.41-15.702 3.806-4.39-4.001-6.837-18.905-8.742-28.976-0.731-3.744 1.311-7.105 4.035-9.72" fill="#FF0000" p-id="4137"></path><path d="M146.737 652.826c22.746 21.232 47.697 36.856 72.239 48.378 7.089-20.913 17.659-37.882 33.309-48.973-40.982-13.064-72.499-35.607-93.604-56.055-0.055 20.716-4.229 39.524-11.944 56.65z" fill="#AFD6FF" p-id="4138"></path><path d="M872.439 302.44c-62.643-44.852-149.93-87.504-167.011-85.918-44.21 4.096-70.584 20.921-74.456 20.437-4.295-0.507-76.612-0.93-107.271 16.775L389.816 330.94c-25.653 14.878-105.222 95.059-106.859 97.068l-116.346 90.224c-7.038 5.335-13.52 11.639-19.444 18.349-7.433 8.459-9.906 10.954-13.408 16.66-2.5 4.121-2.397 9.351 0.241 13.386 19.599 30.028 85.752 96.103 189.36 96.298 14.823 0.019 29.402-3.639 42.319-10.924 10.64-6.003 23.118-13.514 35.37-21.631 25.283-16.764 45.744-39.797 60.024-66.537 23.304-43.608 62.375-115.842 74.164-132.476 13.215-18.67 134.208-86.341 155.903-90.798 23.78-4.875 82.618-4.331 110.437-4.789 29.916-0.493 45.77-10.244 70.689-27.079 2.182-1.457 2.33-4.716 0.173-6.251zM528.775 432.82l-55.554 101.904c-3.474 6.4-10.915 8.626-17.941 6.719-25.335-6.82-87.356-28.376-147.372-81.7-9.242-8.219-22.908-28.043-13.209-37.789 29.524-29.649 55.616-54.371 83.141-77.766a1.165 1.165 0 0 1 1.569 0.034c6.587 6.408 57.28 53.662 148.624 86.737 0.768 0.266 1.141 1.173 0.742 1.861z" fill="#3AAEFF" p-id="4139"></path><path d="M156.514 570.876c0.578-0.999 1.138-2.164 1.769-3.364 4.086-7.189 10.641-17.624 20.02-30.214 2.321-3.038 4.857-6.065 7.332-9.29 3.388-4.434 7.345-8.604 11.146-13.052 3.891-4.32 8.073-8.531 12.134-12.871 8.338-8.433 16.838-16.711 25.211-24.068 8.296-7.44 16.263-14.125 23.186-19.757 6.96-5.536 12.788-10.201 16.952-13.288a262.132 262.132 0 0 1 6.021-4.425c0.204-0.147 0.396-0.285 0.601-0.405 0 0 43.849 70.232 167.762 109.674 0 0-0.328 0.285-0.911 0.821-0.415 0.352-0.717 0.594-1.02 0.888-1.139 0.957-2.724 2.33-4.787 4.01-4.292 3.637-10.595 8.563-18.228 14.417-7.604 5.918-16.753 12.384-26.616 19.233-4.94 3.413-10.175 6.77-15.419 10.217-5.413 3.262-10.768 6.807-16.356 9.9-5.544 3.191-10.995 6.546-16.623 9.391-5.553 2.976-11.029 5.918-16.495 8.391-5.407 2.563-10.605 5.133-15.728 7.184-5.071 2.105-9.796 4.354-14.375 5.865-4.493 1.639-8.624 3.174-12.286 4.509-3.718 1.164-7.002 2.158-9.668 2.97-5.37 1.621-8.467 2.541-8.467 2.541s-78.127-17.686-118.975-72.057l3.82-7.22" fill="#94CBFF" p-id="4140"></path><path d="M448.646 549.816s-2.372 2.141-6.717 5.719c-4.292 3.604-10.595 8.563-18.228 14.417-7.604 5.918-16.753 12.384-26.616 19.233-4.94 3.413-10.175 6.77-15.419 10.217-5.413 3.262-10.768 6.807-16.356 9.9-5.544 3.191-10.995 6.546-16.623 9.391-5.553 2.976-11.029 5.918-16.495 8.391-5.407 2.563-10.605 5.133-15.728 7.184-5.071 2.105-9.796 4.354-14.375 5.865-4.493 1.639-8.624 3.174-12.286 4.509-3.718 1.164-7.002 2.158-9.668 2.97-5.37 1.621-8.467 2.541-8.467 2.541s3.14-0.758 8.572-2.076c2.742-0.692 6.061-1.528 9.873-2.465 3.732-1.191 7.941-2.521 12.519-4.003 4.649-1.372 9.443-3.475 14.642-5.459 5.182-1.906 10.476-4.305 15.96-6.872 5.553-2.441 11.054-5.341 16.659-8.297 5.691-2.794 11.217-6.125 16.833-9.271 5.578-3.209 10.95-6.771 16.321-10.105 5.267-3.52 10.494-6.971 15.402-10.434a471.152 471.152 0 0 0 26.211-19.983c7.502-6.088 13.442-11.505 17.582-15.289 4.139-3.796 6.404-6.083 6.404-6.083" opacity=".2" p-id="4141"></path><path d="M567.535 244.334c34.187 7.14 93.478 43.154 135.961 83.096a9.052 9.052 0 0 0 6.227 2.443l92.487-0.639c1.102 0 1.81-1.166 1.291-2.129-8.39-15.974-122.562-79.649-167.803-86.67-1.097-0.145-2.175-0.197-3.32-0.223-7.819-0.018-40.873 0.13-64.843 4.122" fill="#252F30" p-id="4142"></path><path d="M562.252 244.161l27.478-3.57c7.123-0.587 15.815-1.068 25.783-1.337a507.767 507.767 0 0 1 15.874-0.275c1.569-0.036 2.826 0.166 4.303 0.232 1.439 0.277 2.922 0.527 4.414 0.785a139.22 139.22 0 0 1 8.804 2.199c23.668 6.9 49.838 18.749 77.042 32.822 13.573 7.089 27.396 14.807 41.156 23.188 6.864 4.193 13.701 8.573 20.357 13.263a145.44 145.44 0 0 1 9.777 7.477 54.651 54.651 0 0 1 4.572 4.261c0.732 0.836 1.535 1.665 2.008 2.542 0 0 0.447 0.615 0.719 1.139 0.084 0.208 0.143 0.414 0.152 0.648 0.121 0.862-0.32 1.783-1.043 2.284-0.326 0.25-0.82 0.405-1.243 0.45h-5.421l-6.081 0.016-12.226 0.052c-8.123 0-16.211 0.017-24.221 0.06-8.046 0.034-16.029 0.085-23.885 0.128-3.949 0.017-7.848 0.052-11.718 0.087l-5.829 0.053c-1.896-0.071-3.838 0.256-5.959-0.329-2.034-0.474-3.813-1.881-5.105-3.208l-4.172-3.796c-2.725-2.535-5.586-4.915-8.363-7.32-5.579-4.76-11.176-9.298-16.755-13.531a478.343 478.343 0 0 0-32.214-22.707 402.926 402.926 0 0 0-28.772-16.764c-8.726-4.683-16.66-8.133-23.195-10.858-6.633-2.621-11.849-4.303-15.521-5.329a2765.11 2765.11 0 0 0-5.71-1.398l-5.006-1.264z m11.232 0.519c3.742 1.034 9.165 2.819 15.822 5.449 6.6 2.821 14.574 6.296 23.352 11.047a407.183 407.183 0 0 1 28.859 16.971 471.657 471.657 0 0 1 32.266 22.915 377.169 377.169 0 0 1 16.752 13.631c2.795 2.409 5.668 4.832 8.366 7.41l4.207 3.822c1.372 1.369 2.675 2.379 4.397 2.828 1.623 0.49 3.561 0.24 5.52 0.293l5.794-0.045c3.88-0.008 7.804-0.035 11.727-0.052 7.882-0.077 15.823-0.146 23.868-0.221 15.831-0.193 31.938-0.406 48.054-0.607 0.819 0.035-1.095-2.276-2.208-3.483a50.842 50.842 0 0 0-4.404-4.035 154.65 154.65 0 0 0-9.668-7.26c-6.656-4.66-13.459-8.952-20.332-13.117-13.692-8.28-27.54-15.894-41.113-22.879a729.567 729.567 0 0 0-39.707-18.962c-12.813-5.571-25.143-10.392-36.811-13.765-2.921-0.862-5.792-1.534-8.62-2.156-1.373-0.268-2.741-0.517-4.114-0.785-1.379-0.053-2.923-0.259-4.12-0.215-5.562-0.009-10.864 0.07-15.815 0.163-9.925 0.295-18.548 0.725-25.654 1.278-7.251 0.551-12.871 1.199-16.658 1.715 0.096 0.015 0.172 0.034 0.24 0.06" fill="#151B1C" p-id="4143"></path><path d="M738.581 358.709c-23.374-11.161-50.741-10.03-73.229 2.865-35.682 20.399-83.899 48.291-104.748 60.364-5.77 3.318-10.479 8.053-13.72 13.833-14.502 25.68-45.603 93.153-48.589 104.776L772.521 383.19c-5.484-8.347-19.125-17.349-33.94-24.481z" fill="#252F30" p-id="4144"></path><path d="M774.004 382.415c-5.096-7.184-11.969-11.885-18.831-16.274-6.959-4.18-14.203-8.173-21.747-11.09-15.374-5.899-32.497-6.853-48.363-2.726-7.961 1.95-15.556 5.341-22.532 9.504l-20.987 12.024-31.059 17.825-41.992 24.084c-3.507 2.071-6.976 3.907-10.52 6.116-3.517 2.311-6.656 5.157-9.233 8.484-2.648 3.322-4.396 7.081-6.337 10.539l-5.643 10.771c-7.328 14.426-14.297 28.984-21.1 43.628a1255.509 1255.509 0 0 0-9.975 22.094c-3.182 7.473-6.482 14.711-9.021 22.754a1.688 1.688 0 0 0 1.097 2.052c0.455 0.146 0.92 0.069 1.299-0.144l0.082-0.052 142.729-81.538 131.468-75.819c0.837-0.472 1.105-1.466 0.665-2.232zM501.468 536.786c2.15-6.003 4.698-12.124 7.239-18.058a940.352 940.352 0 0 1 9.872-22.096c6.679-14.643 13.613-29.223 20.845-43.6l5.535-10.729c1.994-3.552 3.691-7.183 6.055-10.183 2.379-3.053 5.279-5.702 8.503-7.873 3.302-2.045 6.931-4.046 10.364-6.064l39.242-22.729 22.468 66.296-130.123 75.036z m144.893-83.514L623.895 386.9l18.875-10.937 20.942-12.15c6.881-4.087 14.192-7.252 21.944-9.116 10.578-2.713 21.746-3.051 32.469-1.139l16.708 49.213-88.472 50.501z m93.914-53.608l-15.061-44.474a72.907 72.907 0 0 1 7.178 2.374c7.475 2.981 14.449 6.777 21.218 11.071 6.063 3.989 12.161 8.44 16.403 14.05l-29.738 16.979z" p-id="4145"></path><path d="M453.55 540.967c0.599-0.354 1.199-0.709 1.806-1.06 5.101-2.938 13.992-7.015 20.716-10.412l15.176-27.831c-0.13 0.048-0.254 0.086-0.383 0.152-9.192 4.777-38.277 20.104-47.485 25.416-3.579 2.073-6.942 3.898-10.027 5.694-0.573 0.328-1.127 0.65-1.679 0.979 8.685 3.159 16.105 5.46 21.876 7.062z" fill="#2F2F2F" p-id="4146"></path><path d="M423.624 493.072c2.65 12.491 16.204 26.401 30.229 30.958 14.023 4.565 23.282-1.875 20.618-14.365-2.628-12.492-16.192-26.378-30.205-30.958-14.009-4.578-23.299 1.856-20.642 14.365m40.837 3.975l-15.676 4.479-6.646-19.455c0.811 0.18 1.612 0.326 2.465 0.594 7.476 2.449 14.811 7.985 19.857 14.382m-25.625-15.485l8.07 23.579 19.323-5.545c2.112 3.208 3.69 6.517 4.373 9.682 2.28 10.77-5.694 16.324-17.728 12.408-12.101-3.968-23.757-15.91-26.035-26.655-1.869-8.916 3.331-14.133 11.997-13.469" p-id="4147"></path><path d="M296.228 443.704c-0.2-4.838-5.656-6.168-3.75-10.375 0.431-0.993 8.276-6.496 9.018-6.167 64.447 20.636 132.452 62.462 173.321 101.524-7.73 18.902-15.632 13.816-18.997 13.301-3.36-0.52-9.368-3.08-9.368-3.08s-89.764-31.319-150.224-95.203" fill="#858585" p-id="4148"></path><path d="M529.235 430.086c-0.647-0.457-0.891-0.457-1.104-0.568l-0.793-0.285-3.155-1.225c-2.061-0.785-4.143-1.57-6.204-2.354-4.133-1.527-8.193-3.122-12.122-4.82-15.927-6.519-30.549-13.642-43.777-20.68-26.524-14.046-47.114-28.361-60.963-39.037-13.872-10.659-20.95-17.713-20.95-17.713s-0.191-0.261-0.759-0.482c-0.527-0.278-1.725-0.192-2.379 0.524-0.941 0.776-2.303 1.95-4.089 3.484a7413.926 7413.926 0 0 0-15.313 13.445c-13.081 11.683-31.414 28.827-52.735 50.042a898.056 898.056 0 0 1-8.159 8.139c-1.379 1.407-2.82 2.691-4.112 4.487-1.182 1.808-1.949 3.922-2.086 6.078-0.345 4.329 0.974 8.52 2.707 12.408 1.802 3.882 4.131 7.537 6.788 11.005 5.319 7.063 12.665 12.254 19.468 18.204 3.561 2.813 7.148 5.632 10.78 8.486 3.732 2.742 7.519 5.484 11.32 8.261 30.886 21.504 66.782 40.522 105.196 52.589 2.415 0.759 4.819 1.447 7.226 2.127 2.45 0.769 5.166 1.149 7.794 0.916 5.305-0.318 10.546-3.719 12.78-8.555a7357.913 7357.913 0 0 0 14.323-26.137c9.485-17.303 18.793-34.314 27.832-50.812 4.537-8.303 9.004-16.473 13.367-24.474 0.422-1.069 0.05-2.371-0.881-3.053z m-14.747 26.295c-8.972 16.503-18.254 33.561-27.678 50.921-4.68 8.658-9.423 17.412-14.183 26.181a12.595 12.595 0 0 1-1.156 1.937c-21.76 3.959-177.407-73.954-172.85-116.035 2.602-2.553 5.152-5.097 7.642-7.589 21.375-21.126 39.74-38.177 52.821-49.808 6.596-5.772 11.787-10.305 15.296-13.384 1.787-1.52 3.175-2.701 4.252-3.554 0 0 7.166 7.149 21.073 17.928 13.908 10.745 34.568 25.216 61.169 39.412 13.287 7.131 27.981 14.305 43.958 20.892a217.064 217.064 0 0 0 12.169 4.902c2.076 0.793 4.143 1.585 6.229 2.389l3.165 1.215 1.173 0.447c-4.295 7.899-8.644 15.944-13.08 24.146z" p-id="4149"></path><path d="M527.568 432.234l-1.173-0.447-3.165-1.215c-2.086-0.804-4.152-1.596-6.229-2.389a217.064 217.064 0 0 1-12.169-4.902c-15.977-6.587-30.67-13.76-43.958-20.892-26.601-14.196-47.261-28.667-61.169-39.412-13.907-10.779-21.073-17.928-21.073-17.928-1.078 0.853-2.466 2.034-4.252 3.554-3.509 3.079-8.7 7.612-15.296 13.384-13.081 11.63-31.446 28.681-52.821 49.808-2.49 2.493-5.04 5.036-7.642 7.589-4.557 42.081 151.09 119.994 172.85 116.035a12.5 12.5 0 0 0 1.156-1.937c4.76-8.77 9.503-17.523 14.183-26.181 9.424-17.36 18.706-34.418 27.678-50.921 4.436-8.201 8.785-16.246 13.08-24.146z" fill="#334547" p-id="4150"></path><path d="M621.67 517.859l18.58-10.727c1.939-1.129 3.518-3.605 3.518-5.587 0-1.933-1.578-2.599-3.518-1.468l-18.58 10.703c-1.949 1.131-3.518 3.618-3.518 5.577 0 1.942 1.569 2.643 3.518 1.502" p-id="4151"></path><path d="M761.363 436.866l7.184-3.789c2.422-1.306 4.438-4.195 4.438-6.455v-8.306c0-2.249-2.017-3.025-4.438-1.743l-7.184 3.806c-2.459 1.32-4.449 4.184-4.449 6.447v8.306c0 2.256 1.99 3.038 4.449 1.734" opacity=".2" p-id="4152"></path><path d="M755.664 434.989l18.58-10.728c1.941-1.129 3.52-3.604 3.52-5.587 0-1.932-1.578-2.598-3.52-1.468l-18.58 10.702c-1.949 1.13-3.519 3.622-3.519 5.581 0.001 1.939 1.57 2.639 3.519 1.5M527.837 546.229l-13.663 0.706a38.166 38.166 0 0 1-18.463-3.681c2.584-6.38 5.072-12.771 7.805-19.107l16.508 7.388 7.813 14.694z" p-id="4153"></path><path d="M519.682 526.233c3.861-0.244 32.653 9.097 32.307 12.483-0.672 6.488-10.865 15.022-16.978 16.282-5.882 1.229-30.416-6.587-30.54-8.874-0.238-4.335 7.805-19.461 15.211-19.891" p-id="4154"></path><path d="M193.617 626.163c13.742 8.746 29.604 18.226 56.36 27.793a73.575 73.575 0 0 1 2.307-1.725c-40.982-13.064-72.499-35.607-93.604-56.055-0.004 1.501-0.035 2.99-0.083 4.472 9.816 7.813 21.363 16.808 35.02 25.515zM157.626 613.464c7.43 5.839 17.721 13.938 30.007 21.942 12.792 8.306 27.931 17.645 53.139 26.988a80.697 80.697 0 0 1 2.686-2.768c-25.571-9.369-40.864-18.686-53.926-27.1-12.702-8.169-23.369-16.51-31.5-22.879a134.58 134.58 0 0 1-0.406 3.817zM155.797 624.775c5.566 4.563 14.701 12.057 25.714 19.566 12.183 8.258 27.015 17.905 51.681 27.582a86.433 86.433 0 0 1 2.195-3.054c-24.739-9.558-39.637-19.041-51.954-27.341-11.413-7.61-20.895-15.268-26.98-20.176a141.845 141.845 0 0 1-0.656 3.423zM153.212 635.229c4.264 3.764 12.475 10.786 22.427 17.961 11.822 8.461 26.644 18.694 51.396 28.981a106.277 106.277 0 0 1 1.768-3.235c-24.673-10.089-39.479-20.105-51.388-28.539-10.242-7.248-18.699-14.388-23.316-18.364a130.996 130.996 0 0 1-0.887 3.196zM149.908 645.133c3.394 3.193 11.071 10.018 20.461 17.021 11.674 8.762 26.722 19.62 51.754 30.627 0.455-1.119 0.92-2.227 1.402-3.315-24.932-10.782-39.907-21.476-51.603-30.155-9.484-7.022-17.271-13.878-20.897-17.241a135.099 135.099 0 0 1-1.117 3.063zM219.4 700.003c-25.151-11.399-40.409-22.604-52.116-31.454-9.444-7.165-17.184-14.081-20.079-16.8-0.159 0.357-0.308 0.72-0.468 1.077 22.746 21.232 47.697 36.856 72.239 48.378 0.137-0.405 0.286-0.799 0.424-1.201z" fill="#B9E5FF" p-id="4155"></path></svg>